<?xml version="1.0" encoding="utf-8"?>
<!-- Generator: Adobe Illustrator 21.0.2, SVG Export Plug-In . SVG Version: 6.00 Build 0)  -->
<svg version="1.1" id="mesopa_x5F_xl-logo" xmlns="http://www.w3.org/2000/svg" xmlns:xlink="http://www.w3.org/1999/xlink" x="0px"
	 y="0px" viewBox="0 0 760 380" style="enable-background:new 0 0 760 380;" xml:space="preserve">
<style type="text/css">
	.st0{fill:#FFFFFF;}
</style>
<path class="st0" d="M315.5,54.9c-1.8-7.9-7.1-14.4-15.9-19.8c-12.6-7.5-28-9.2-46.2-5c-16,3.7-32.8,11.2-50.5,22.6
	c-9.3,5.9-16.9,12.9-22.9,20.9c-9.2,12.5-12.6,23.7-10.4,33.6c3,13.3,14.2,23.2,33.5,29.9c7.2,2.4,21.2,5.7,42.2,10
	c21,4.3,36.5,8.1,46.5,11.5c15.1,5,26.3,11.6,33.4,19.6c7.2,8.1,11.7,16,13.5,23.9c2.6,11.2,1.5,23.5-3.2,36.9
	c-8.2,23.9-23.2,46.3-44.9,67.1c-24.9,24.2-57.9,41-98.7,50.4c-39.3,9-72.8,6.2-100.6-8.4c-21.5-11.1-35-28.7-40.5-52.8
	c-3.5-15.3-1.8-33.4,5.1-54.4c6.9-21,17.5-37.1,31.9-48.5c3.1-2.1,5.5-3.2,7.3-3.1c1.8,0.1,0.9,2.5-2.7,7.4
	c-7.9,9.9-13.7,20.1-17.4,30.6c-8,22.7-9.4,45.6-4.1,68.7c3.5,15.3,10.9,27.7,22,37.1c20,16.9,49.1,22.4,87.5,16.4
	c4.4-0.5,10.8-1.8,19.2-3.7c8.4-1.9,19.5-6.1,33.3-12.5c13.8-6.4,26.6-14.6,38.5-24.6c25.5-21.9,39.7-46,42.6-72.2
	c1-7.8,0.8-15.1-0.8-21.8c-3.5-15.3-13.5-27.2-29.9-35.7c-8.8-4.1-25.7-8.5-50.7-13c-25-4.5-42.1-8.5-51.1-11.8
	c-20-7.7-31.8-19.5-35.5-35.5c-3.2-13.9,1.4-29.3,13.9-46.1c17.9-24,47.2-40.7,87.8-50c19.1-4.4,35.3-5.1,48.6-2.1
	c13.3,3,22.7,9.9,28,20.7c1,2.1,1.7,4.3,2.2,6.6c2,8.8-0.2,17.6-6.7,26.4c-4.6,5.8-11.3,11.1-20.1,16c-3.8,2.1-6.1,2.1-7,0.2
	c-1.1-2.8,1.3-5.3,7.2-7.3c10.5-3.8,15.9-10.7,16.2-20.7C316.2,59.5,316,57.1,315.5,54.9z"/>
<path class="st0" d="M421.5,147.2c16.4-3.8,27,4.7,31.7,25.3c2.2,9.4,2,20.1-0.4,32c-2.9,16.1-9.3,31.5-19.2,46.3
	c4.2,4.9,10.1,6.5,17.8,4.8c6.1-1.4,11.1-5.7,15.1-13.1c5.1-8.5,8.6-15.7,10.3-21.7c1.7-5.9,2.9-10.3,3.7-13.1
	c0.8-2.8,1.7-6.7,2.8-11.8c1.1-5.1,1.7-8.2,1.9-9.3c0.2-1.1,0.9-1.8,2-2.1c2.2-0.7,3.5-0.2,3.9,1.6c0.2,0.7,0.1,1.5-0.1,2.5
	l-0.9,5.2c-0.6,3.5-1.1,5.9-1.5,7.4c-0.4,1.5-1,4.2-1.9,8.1c-0.9,3.9-1.7,7-2.5,9.3c-0.8,2.3-1.8,5.4-3.2,9.2
	c-1.4,3.9-2.6,7-3.9,9.4c-1.2,2.4-2.8,5.1-4.7,8.2c-1.9,3-3.8,5.5-5.8,7.4c-4.8,4.7-9.7,7.6-14.7,8.7c-9.2,2.1-17.1,0.9-23.6-3.8
	c-8.6,10-17.2,16-26,18c-16.4,3.8-27-4.7-31.7-25.3c-2.2-9.4-2-20.1,0.4-32c3.1-17.3,9.5-32.8,19.2-46.6
	C400.1,157.9,410.5,149.7,421.5,147.2z M427.6,156.8c-6.1,1.4-12.3,7.1-18.8,17.1c-6.5,10-11.3,22.7-14.6,38.1
	c-4.1,18-5,32.1-2.6,42.5c2.4,10.3,7.5,14.6,15.4,12.8c5.6-1.3,11.2-5.8,16.8-13.4c-4.8-4.3-7.8-9.4-9.2-15.3
	c-1.8-9.8,1-15.5,8.5-17.2c2.9-0.7,5.6-0.2,7.9,1.4c2.4,1.6,3.8,3.2,4.1,4.9s0.6,3.5,0.5,5.4c2.5-6.5,5.1-15.5,7.6-26.9
	c3-12.7,3.2-24.6,0.7-35.6C441.3,159.4,435.9,154.9,427.6,156.8z"/>
<path class="st0" d="M580.2,138.4c2.3,9.9,2.2,21.4-0.2,34.5c-2.4,13.1-6.9,26.2-13.5,39.3c-6.6,13.1-15.9,23.2-28,30.2
	c-4.6,2.5-10.1,4.5-16.5,5.9c-6.4,1.5-13.9,1.1-22.5-1.2l-13.6,87.2c-1.7,8-3.8,13.4-6.2,16.3c-2.4,2.9-5,4.7-7.6,5.3
	c-2.7,0.6-4.3,1-4.9,1.1c-0.6,0.1-2.7,0.3-6.3,0.4c-3.6,0.1-6.3,0.5-8.1,1.1c3.9-5.9,11.2-31.1,22.1-75.9
	c10.9-44.7,16.1-74.3,15.6-88.9c-1.6,4.2-3.6,6.6-5.8,7.4c-1.3,0.3-1.6-1-0.9-3.9c0.8-2.9,1.8-8.4,3.3-16.5
	c1.8-10.6,1.8-20-0.1-28.2c-1.9-8.2-4.6-12.6-8-13.2c13-5.3,20.6-8.2,22.8-8.6c2.3-0.4,3.9,0.2,4.9,1.9c1,1.7,1.7,3.6,2.2,5.9
	c3.2,13.7,3.5,29.7,1.1,48l4.3-12.3c5.1-14.9,9-24.7,11.9-29.3c2.8-4.7,5.9-9.5,9.2-14.5c5.1-7.8,10.6-12.4,16.7-13.8
	c1.8-0.4,3.5-0.6,5.2-0.5C569.2,116.3,576.8,123.8,580.2,138.4z M563.2,138.7c-0.8-3.6-2.3-6.7-4.5-9.4c-2.2-2.7-4.8-3.7-8-3
	c-7.9,1.8-15.3,11.2-22.4,28.2c-7.1,17-16.2,45.9-27.4,86.8c3.6,2.3,8,2.8,13.1,1.6c5.2-1.2,11.6-6.8,19.2-16.8
	c12.2-16,21.1-34.5,27-55.5C564,157,565,146.3,563.2,138.7z"/>
<path class="st0" d="M683.9,143.7c-4.1,16-6.1,27.7-5.9,35.1c0.2,7.4,0.8,13.3,1.8,17.7c1,4.4,3.2,6.2,6.6,5.4
	c4.3-1,8.6-6.1,13.1-15.4c6.6-13.6,12.2-30.6,17-51.1c0.4-2.2,1.2-3.6,2.3-4.1c1.6-1.1,2.7-0.6,3.2,1.4c0.3,1.1,0.2,2.6-0.1,4.3
	c-11.1,46.5-23.7,71.4-37.8,74.7c-6.5,1.5-12.5-0.4-18-5.8c-2.8-2.9-4.8-7.2-6.1-12.8c-1.3-5.6-1.7-12.7-1.4-21.3
	c-11.3,33.1-23.5,51.2-36.5,54.2c-3.6,0.8-7.1,0.5-10.5-1.1c-7.8-3.2-13.1-10.5-15.7-21.9c-5.1-22-0.7-46.6,13.2-73.6
	c7.9-15.1,19.3-26.3,34.1-33.7c4-2.1,7.9-3.6,11.7-4.5c10.3-2.4,19.9-0.8,28.8,4.7c2.8,2,4,4.2,3.6,6.6c-0.4,2.5-2.1,3.8-5.1,4
	c-4.3-7.5-10.7-10.3-19-8.4c-9.7,2.2-19.8,12.6-30.4,31.1c-6,10.8-11.1,23.1-15.3,36.9c-5.4,16.6-7.1,29.3-5.1,38.1
	s5.8,12.5,11.4,11.2c13.5-3.1,26.4-27.8,38.6-74.2c2.4-9.3,4.6-15.8,6.9-19.5c2.2-3.7,5.6-6.1,10.1-7.1c0.9-0.2,3.3-0.4,7.1-0.6
	c3.9-0.2,6.6-0.7,8.3-1.6C691.7,117.3,688.1,127.8,683.9,143.7z"/>
<path class="st0" d="M452.8,80.2c-6.9,23.5-9.7,38.3-8.3,44.3c0.6,2.7,1.8,3.8,3.7,3.4c2.3-0.5,4.5-2.9,6.7-7
	c3.2-6.5,5.7-14,7.3-22.4c0.3-1.5,0.7-2.1,1.4-2s1,0.5,1.1,1c0.1,0.5-0.1,1.8-0.6,3.9c-0.5,2.1-0.9,3.8-1.2,5.1
	c-0.3,1.3-1.1,3.8-2.3,7.5c-1.2,3.7-2.3,6.5-3.4,8.3c-1,1.9-2.5,3.8-4.3,5.8c-1.8,2-4.1,3.3-6.8,3.9c-2.7,0.6-5.4-0.2-7.9-2.4
	c-1.1-1-2-2.6-2.5-4.8s-0.6-4.9-0.4-8.2c0.3-3.3,1.7-8.9,4.5-16.8c0.7-2,0.9-3.5,0.6-4.5c-0.2-1-1.1-1.3-2.7-1s-4,2.9-7.2,7.7
	c-3.2,4.8-6.4,11-9.4,18.5c-3.1,7.6-4.6,13.4-4.5,17.5c-1.6,0.4-3,0-4.1-1.2c-1.1-1.2-1.7-2.2-1.9-3.2c-0.9-3.9,0-12,2.7-24.3
	c0.9-4,1.2-6.7,1-8c-0.2-1.3-0.5-1.9-1-1.9c-0.4,0.1-1,0.4-1.7,0.9c-1.5,1.3-3.7,4-6.5,8.1c-5.3,7.7-9.8,18.5-13.4,32.6
	c-0.2,1.2-0.7,2-1.3,2.4c-0.7,0.4-2,0.9-4.1,1.5c-2.1,0.6-3.4,1.1-4,1.7c1-3.8,2.5-10.7,4.7-20.9c4-18.3,7-29,9-32
	c0.9-1.4,2.3-2.4,4.3-2.8c0.4-0.1,1.4-0.2,3-0.2c1.6-0.1,2.8-0.3,3.6-0.7c-3.1,2.7-6.8,13.1-11.2,31c3.2-6.6,5.6-11,7.2-13.2
	c1.6-2.2,2.7-3.8,3.5-4.9c0.8-1.1,1.3-1.9,1.8-2.5c0.4-0.6,1-1.5,1.8-2.6c0.8-1.1,1.4-2,1.8-2.5c0.4-0.6,1-1.3,1.8-2.3
	c0.8-1,1.4-1.7,1.9-2c0.5-0.4,1.1-0.9,1.9-1.7c0.8-0.8,1.4-1.2,1.8-1.3c0.4-0.1,1-0.4,1.7-0.8c0.7-0.4,1.3-0.5,1.6-0.1
	c2.1,0.3,3.3,1.3,3.7,2.9c0.3,1.4-0.5,5.5-2.3,12.2c-1.9,6.7-3.1,11.1-3.6,13.2c3-6.2,6-11.5,9.1-15.8c3.1-4.3,6.9-8.5,11.4-12.5
	c4.6-4.1,8-6.4,10.4-6.9C451.9,80.1,452.4,80.1,452.8,80.2z"/>
<path class="st0" d="M469.8,102.6c-0.6,3.6-0.4,7.4,0.5,11.4c0.6,2.7,1.7,4.7,3.3,6c1.6,1.3,3.4,1.7,5.7,1.2c8.7-2,14.7-12,18.1-30
	c0.3-1.7,1-2.5,2-2.6c0.4,0,0.7,0.2,0.7,0.6c0.1,0.4-0.4,3.1-1.5,8.3c-1.1,5.1-2.4,9.4-3.9,12.8c-3.3,7.8-8.6,12.6-15.8,14.2
	c-3.8,0.9-7.4,0.4-10.6-1.5c-3.3-1.9-5.4-5-6.4-9.3c-1-4.3-1-9.1-0.1-14.4c0.9-5.3,2.7-10.5,5.3-15.5c2.6-5,6-9,10.1-11.9
	c2-1.5,4-2.4,6-2.9c2-0.5,4-0.3,6,0.4c1.9,1,3.1,2.3,3.5,3.9c1.3,5.8-0.9,12.1-6.5,18.9c-1.7,2.1-4.4,4.3-7.9,6.4
	C474.6,100.8,471.8,102.2,469.8,102.6z M488.7,74.1c-0.4-1.9-1.4-2.7-3-2.3c-2.7,0.6-6,4.9-9.9,12.7c-2.3,4.8-4.2,9.9-5.5,15.5
	c1.6-0.4,3.9-1.5,6.7-3.4c2.8-1.9,5.2-4,7.1-6.5C488.3,84.4,489.8,79.1,488.7,74.1z"/>
</svg>
