<svg xmlns="http://www.w3.org/2000/svg" viewBox="0 0 400 289"><filter id="b"><feGaussianBlur stdDeviation="12" /></filter><path fill="#d4cdcb" d="M0 0h400v287H0z"/><g filter="url(#b)" transform="translate(.8 .8) scale(1.5625)" fill-opacity=".5"><ellipse fill="#3f0400" rx="1" ry="1" transform="matrix(.40575 -47.07738 29.7278 .25622 212.8 34.9)"/><ellipse rx="1" ry="1" transform="rotate(-170.5 57 11.6) scale(38.25728 13.34942)"/><ellipse rx="1" ry="1" transform="matrix(76.72488 -20.68445 2.85853 10.60317 208.6 183)"/><path fill="#080000" d="M82 123L79 23 59 53z"/><ellipse fill="#fff" rx="1" ry="1" transform="rotate(-20.8 434 -366) scale(95.17527 49.57064)"/><ellipse fill="#fff" cx="29" cy="61" rx="32" ry="255"/><ellipse fill="#8d4407" rx="1" ry="1" transform="matrix(6.04433 2.1523 -20.05072 56.30895 244 122.1)"/><path fill="#fafcfb" d="M101 75h123v103H101z"/></g></svg>