<svg xmlns="http://www.w3.org/2000/svg" viewBox="0 0 400 289"><filter id="b"><feGaussianBlur stdDeviation="12" /></filter><path fill="#303030" d="M0 0h400v287H0z"/><g filter="url(#b)" transform="translate(.8 .8) scale(1.5625)" fill-opacity=".5"><ellipse fill="#fff" rx="1" ry="1" transform="matrix(-60.07304 -18.51324 10.80741 -35.06863 140.2 97.9)"/><ellipse fill="#fff" rx="1" ry="1" transform="matrix(15.45722 -2.66992 7.36365 42.63101 104.6 98.3)"/><ellipse rx="1" ry="1" transform="rotate(-70.7 42 1) scale(255 62.37622)"/><ellipse rx="1" ry="1" transform="matrix(49.30258 138.2357 -43.92957 15.66774 214.6 36.8)"/><path fill="#fff" d="M106 28h19v19h-19z"/><ellipse fill="#fafafa" rx="1" ry="1" transform="matrix(-3.00297 32.0771 -18.59496 -1.74081 155.7 103)"/><path fill="#202020" d="M103.2 42l47-1 .6 33-47 1z"/><ellipse cx="232" cy="171" rx="73" ry="26"/></g></svg>