<svg xmlns="http://www.w3.org/2000/svg" viewBox="0 0 400 289"><filter id="b"><feGaussianBlur stdDeviation="12" /></filter><path fill="#090909" d="M0 0h400v287H0z"/><g filter="url(#b)" transform="translate(.8 .8) scale(1.5625)" fill-opacity=".5"><path fill="#fff" d="M66 160.5l96.2-3.4-59.5-23-4.2.4z"/><path fill="#fff" d="M121 152l-40 13 22-36z"/><ellipse fill="#414141" rx="1" ry="1" transform="rotate(-67.4 180.5 -32) scale(7.58338 52.65334)"/><path fill="#fff" d="M106 155l-34 4 43-27z"/><ellipse rx="1" ry="1" transform="matrix(248.40892 -28.28445 6.42411 56.41995 109.3 35.5)"/><path fill="#4e4e4e" d="M69.9 161.4l-22.8-3L82.5 134l27.3-5.3z"/><path fill="#090909" d="M117.2 147.7l85.5-62.3-83.2 48.3-12.8 10z"/><ellipse fill="#151515" cx="124" cy="167" rx="47" ry="11"/></g></svg>