<svg xmlns="http://www.w3.org/2000/svg" viewBox="0 0 400 289"><filter id="b"><feGaussianBlur stdDeviation="12" /></filter><path fill="#202020" d="M0 0h400v287H0z"/><g filter="url(#b)" transform="translate(.8 .8) scale(1.5625)" fill-opacity=".5"><ellipse fill="#f4f4f4" rx="1" ry="1" transform="matrix(19.86594 -.34676 .75344 43.1644 120.1 82)"/><ellipse fill="#fff" cx="235" cy="54" rx="7" ry="15"/><ellipse fill="#959595" rx="1" ry="1" transform="rotate(-41.3 100 -248.5) scale(53.06813 21.5659)"/><path d="M198.2 187L184.3 73.8l71.5-8.8 13.9 113.2z"/><ellipse rx="1" ry="1" transform="matrix(-69.5127 -35.87818 24.5477 -47.5603 44.2 150)"/><ellipse fill="#d0d0d0" rx="1" ry="1" transform="rotate(75.9 16.8 116.4) scale(35.48252 13.01241)"/><path fill="#131313" d="M85 66h32v71H85z"/><ellipse fill="#717171" rx="1" ry="1" transform="rotate(70 -19.1 206.5) scale(28.6454 12.72744)"/></g></svg>