<svg xmlns="http://www.w3.org/2000/svg" viewBox="0 0 400 289"><filter id="b"><feGaussianBlur stdDeviation="12" /></filter><path fill="#646464" d="M0 0h400v287H0z"/><g filter="url(#b)" transform="translate(.8 .8) scale(1.5625)" fill-opacity=".5"><path fill="#fdfdfd" d="M57.3 147.5l173.9-6 1.5 43-173.9 6z"/><ellipse rx="1" ry="1" transform="matrix(-27.40167 -54.34518 26.88199 -13.5543 99.1 84.3)"/><ellipse cx="247" cy="47" rx="15" ry="127"/><ellipse fill="#e4e4e4" rx="1" ry="1" transform="matrix(-27.35017 -5.67072 3.69878 -17.83942 63.8 111.8)"/><ellipse fill="#c1c1c1" rx="1" ry="1" transform="matrix(-11.51152 11.21045 -26.66343 -27.3795 207.4 66.5)"/><ellipse fill="#121212" cx="212" cy="14" rx="35" ry="33"/><path fill="#fff" d="M149.7 97.9l-11.8 17.8 24.6 14.2 3.8-23.5z"/><ellipse fill="#2a2a2a" cx="51" cy="67" rx="74" ry="31"/></g></svg>