<svg xmlns="http://www.w3.org/2000/svg" viewBox="0 0 400 289"><filter id="c"><feGaussianBlur stdDeviation="55" /></filter><path fill="#868686" d="M0 0h400v287H0z"/><g filter='url(#c)' fill-opacity='.5'><ellipse fill="#fff" fill-opacity=".5" rx="1" ry="1" transform="matrix(8.78017 72.188 -395.52263 48.10709 107 2.3)"/><ellipse fill-opacity=".5" rx="1" ry="1" transform="matrix(9.58822 80.41723 -63.251 7.54147 128 144.7)"/><ellipse fill-opacity=".5" rx="1" ry="1" transform="matrix(73.70965 23.0992 -11.43518 36.4897 333.6 70.3)"/><ellipse fill-opacity=".5" rx="1" ry="1" transform="matrix(60.97867 -4.0074 3.1257 47.56242 371 209.8)"/><ellipse fill="#fff" fill-opacity=".5" rx="1" ry="1" transform="matrix(-45.11548 156.28917 -48.61614 -14.03386 11.4 119.4)"/><path fill="#f8f8f8" fill-opacity=".5" d="M207 114.8L286.7 79 35.2-24.2z"/><ellipse fill-opacity=".5" rx="1" ry="1" transform="rotate(102.2 110.6 178.9) scale(60.54148 13.08241)"/><ellipse fill="#0f0f0f" fill-opacity=".5" rx="1" ry="1" transform="matrix(-51.82978 114.47874 -16.3756 -7.41398 65.1 183.5)"/></g></svg>