<svg id="mesopa_x5F_xl-logo" xmlns="http://www.w3.org/2000/svg" viewBox="0 0 760 380"><style>.st0{fill:#FFFFFF;}</style><path class="st0" d="M315.5 54.9c-3.5-15.3-20-24.1-34.4-26.4-16.9-2.6-34.3 2.3-49.7 8.8-16.4 7-33.4 16.3-45.7 29.4-10.4 11-20.3 27.2-15.5 42.9 8.4 27.1 46.4 31.5 69.8 36.4 29 6 67.1 10.2 87.2 34.6 23.8 28.9 9 66.3-9.7 93.9-18.6 27.5-44.4 49.9-74.3 64.3-31.2 15.1-67.7 24.6-102.5 22.6-29.7-1.7-61.9-13.3-78.9-39.1-18.9-28.8-14.5-65-.8-95 6-13.2 15.4-28 28.1-35.8 1.1-.7 5.2-3.3 6.5-1.9 1.3 1.5-2.6 6.1-3.3 7.1-5.5 7.6-10.8 15-14.6 23.6-14 31.3-16 76.7 7 104.5 19.4 23.5 51.2 28.7 80 26.5 33.6-2.6 66.1-13.5 93.9-32.9 27.2-19 50.7-46.6 55.2-80.4 2.1-15.9-.5-31.9-11.2-44.4-8.6-10-20-15.8-32.5-19.4-28.8-8.4-59.6-9.7-87.9-19.8-13.3-4.8-26.3-13.2-32.8-26.1-6.8-13.4-5-28.2 1.4-41.4 13.5-27.3 39.8-45.3 67.6-55.7 16.6-6.2 34.3-10.9 52-12.3 14.9-1.1 31.9.1 44 9.9 13.3 10.7 16.3 28.4 7.1 42.7-4.3 6.8-10.9 11.9-17.7 16.2-2.2 1.4-7.4 5.5-10.2 3.7-2.5-1.6-.7-4.4 1-5.8 5.4-4.5 12.5-4.6 17.2-10.6 4.3-5.5 5.2-13.4 3.7-20.1zm264.7 83.5c-2.4-10.1-7.9-20-19-21.9-14.2-2.5-22.2 8.3-29.1 18.9-10.3 15.9-15.9 33.4-22.2 51.2 2.1-15.9 3.3-34-1.5-49.7-1.8-6-4.9-6.9-10.4-5-6.5 2.2-12.8 4.9-19.1 7.5 6.6 1.2 8.2 13.2 8.9 18.3 1.2 9.2.1 18.3-1.6 27.3-2 1.3-2.1 6.9-2.6 8.9-1 4.6-2 9.3-3.2 13.9-2.2 8.1-4.3 16.2-8 23.8-3.9 7.9-8.3 18-16.5 22.3-7.2 3.9-17 3.4-22.5-3 13.6-20.3 23.5-46.6 20.8-71.5-1.9-17.8-11.5-36.7-32.2-32.3-22.2 4.7-37.1 28.9-44.7 48.5-8.2 20.9-13.5 48.6-1.6 69.2 13.2 22.7 39.7 7.7 52.4-7.1 7.6 5.5 17.9 6.1 26.6 2.9 9.3-3.4 15.4-11.3 20.1-19.6 4.2-7.4 7.1-15.5 9.6-23.7 2.4-7.7 3-16.2 5.9-23.7.4 11.1-1.6 22.3-3.5 33.2-3.3 18.7-7.6 37.3-12.1 55.7-4.3 17.6-8.6 35.2-13.7 52.5-2.2 7.6-4 16.7-8.4 23.4 6.6-2.2 14-.4 20.6-3 6.8-2.7 9.6-10 11.4-16.6 1.4-5.3 2.1-10.7 2.9-16.1 3.1-19.6 6.1-39.3 9.2-58.9.9-5.6 1.8-11.2 2.6-16.8 25.6 6.8 50-6.9 63.5-28.6 14-22.2 23.5-53.9 17.4-80zM431 222.8c-6.5-4.5-15.4.3-16.7 7.6-1.5 8.7 3.1 17.8 9.5 23.5-7.7 10.5-25.1 22.1-31.3 3.8-5.2-15.3-1.2-33.5 2.4-48.7 3.8-16.5 10.3-34.5 22.9-46.3 4.4-4.1 10.6-7.8 16.8-5.8 6.3 2.1 8.5 9.7 9.7 15.5 4 19.9-1.5 42-8.7 60.7.2-4.5-.8-7.8-4.6-10.3zm129.2-52.2c-4.9 17.6-12.4 34.5-22.7 49.6-7.1 10.4-21.4 30.9-36.6 21.1 8-29.1 15.7-58.9 27.4-86.8 3.6-8.7 12.5-30.5 25.4-28.3 7.3 1.2 9.8 11.7 10.3 17.7.6 9-1.4 18.1-3.8 26.7zm123.7-26.9c-2.6 10.1-5.2 20.4-5.8 30.8-.3 4.5 0 9 .4 13.4.3 3.7.3 10.7 3.7 13.2 13.1 9.5 27.5-40.5 29.6-47.7 1.7-6 3-12.1 4.7-18.1 1.4-4.9 5.8-6.3 5.6 0-.1 5.7-2.8 12.1-4.3 17.6-1.6 5.8-3.4 11.6-5.3 17.3-4.5 13.1-10.2 30-22.1 38.5-7.2 5.1-16.3 4.2-22.9-1.5-9.5-8.3-9.3-23.9-8.9-35.4-5.6 16.5-12.4 36-25.7 48.1-12.8 11.6-29 5.1-35-10.2-7.4-19-4.1-41.3 2.4-60 6.9-19.8 17.5-38.3 35.6-49.8 9.6-6.1 20.6-10.8 32.2-9.5 5.6.6 13.1 2.6 17.2 6.8 3.6 3.6 2.4 9-3 9.4-5.1-9-15-11.1-24.1-6.5-8.5 4.3-14.8 12.7-19.9 20.4-7.1 10.7-12.6 22.3-16.9 34.3-4.2 11.5-8.2 23.5-9.4 35.8-.7 7.1-1 20.6 6.6 24.5 5 2.5 10.8-1.5 14.3-4.8 12.5-11.9 18.3-31.3 23.4-47.2 4-12.7 6-26.7 11.8-38.7 2.4-5 6.2-8.5 11.7-9.6 4.9-1 10.5.3 15.1-2.2-3.2 4.7-6.8 15.2-11 31.1zM500.1 89.2c0-1.9-2.3.6-2.3.6-.8.8-1 4.3-1.2 5.3-.7 3.1-1.6 6.2-2.6 9.3-1.7 4.7-3.9 9.5-7.6 13-2.8 2.6-7.6 5.3-11.5 3.5-5.9-2.8-5.9-12.9-5-18.2 7.4-1.5 14.9-7.6 18.9-13.8 3.1-4.6 7.5-14.3 1.8-18.6-7.1-5.5-16.6 3.6-20.5 8.9-5.3 7.3-7 15.6-8.8 24.2-1.5 7.1-4.3 17.9-10 22.9-4.9 4.2-6.9-1-7-5.5-.2-13.5 4.9-27.8 8.6-40.6-5.9-1.5-15 9.6-18.2 13-6 6.6-10.4 14.2-14.3 22.2 1.2-5.1 11-27 2.2-28.3-2.5-3.4-13.4 12-14.3 13.3-4.7 6.7-8.9 13.2-12.5 20.6 4.4-17.9 8.1-28.3 11.2-31-4.4 2.2-8.6-.4-11.5 4.8-2 3.5-2.8 7.9-3.9 11.8-3.5 13.2-5.8 26.8-9.2 40 3.5-3.5 7.9-1.1 9.7-6.6 1.7-5.1 2.9-10.3 4.9-15.3 3.1-8 7.3-17.4 13.7-23.3 3.3-3.1 4-.9 3.7 2.9-.5 5.2-2.1 10.4-3 15.6-.6 3.9-3.5 20.3 5.4 18.1-.3-11.2 6.6-24 12.2-33.2 1.8-3 4.9-9.3 8.6-10.3 6.3-1.7 1 9.4.3 11.7-2.3 7.4-6 21.6 3.6 25.5 11.4 4.6 17.7-12.4 20.2-20.3 2 13.9 16.8 17.4 26.8 8.4 4.4-4 6.8-9.6 8.5-15.2 1.1-3.4 1.8-7 2.5-10.5.1-1.3.9-3.6.6-4.9zm-24.3-4.7c1.9-3.7 4.2-9 7.8-11.6 4.2-2.9 5.6 1 5.5 5-.4 9.5-9.5 19.8-18.7 22.1 1.2-5.6 3.1-10.7 5.4-15.5z"/></svg>