<svg id="isometric-header" xmlns="http://www.w3.org/2000/svg" viewBox="0 0 1920 1080"><style>.st0{fill:#2e3542}.st1{fill:#212730}.st2{fill:#394151}</style><path class="st0" d="M0 0h1920v1080H0z" id="background"/><path class="st1" d="M781.4 900.6L325.2 637.2c-13.9-8-12.2-22.1 3.9-31.4l740.1-427.3c16.1-9.3 40.4-10.3 54.3-2.3l456.2 263.4c13.9 8 12.2 22.1-3.9 31.4l-740 427.3c-16.1 9.3-40.4 10.3-54.4 2.3z" id="body_1_"/><path class="st0" d="M781.4 894.6L325.2 631.2c-13.9-8-12.2-22.1 3.9-31.4l740.1-427.3c16.1-9.3 40.4-10.3 54.3-2.3l456.2 263.4c13.9 8 12.2 22.1-3.9 31.4l-740 427.3c-16.1 9.3-40.4 10.3-54.4 2.3z" id="body_4_"/><path id="footer_2_" class="st1" d="M1082 750.1L575.4 457.6 329.1 599.8c-16.1 9.3-17.8 23.3-3.9 31.4l456.2 263.4c13.9 8 38.3 7 54.3-2.3L1082 750.1z"/><path id="header_2_" class="st2" d="M1548.2 480.9l-506.6-292.5 27.6-15.9c16.1-9.3 40.4-10.3 54.3-2.3l456.2 263.4c13.9 8 12.2 22.1-3.9 31.4l-27.6 15.9z"/><ellipse transform="matrix(.9994 -.03325 .03325 .9994 -22.345 23.358)" class="st0" cx="691" cy="683.4" rx="139.9" ry="80.7" id="large_x5F_avatar_1_"/><ellipse id="large_x5F_avatar_2_" transform="matrix(.9994 -.03325 .03325 .9994 -22.225 23.356)" class="st2" cx="691" cy="679.8" rx="139.9" ry="80.7"/><path id="gallery_x5F_wrap_1_" class="st0" d="M1091.1 745L584.4 452.5l203.4-117.4 506.7 292.5z"/><path id="gallery_x5F_wrap_2_" class="st1" d="M1091.1 741.8L584.4 449.3l203.4-117.4 506.7 292.5z"/><path id="figure_x5F_text_15_" class="st2" d="M722.4 497.3L673 468.8l9-5.2 49.4 28.5z"/><path id="figure_x5F_text_14_" class="st2" d="M750.2 497.8l-77.9-45 9-5.2 77.9 45z"/><path id="figure_7_" class="st2" d="M778.7 489.3l-91.8-53 108-62.3 91.8 53z"/><path id="figure_x5F_text_13_" class="st2" d="M835.9 562.8l-49.4-28.5 9-5.2 49.4 28.5z"/><path id="figure_x5F_text_12_" class="st2" d="M863.6 563.3l-77.9-45 9-5.2 77.9 45z"/><path id="figure_6_" class="st2" d="M892.2 554.8l-91.8-53 108-62.3 91.8 53z"/><path id="figure_x5F_text_11_" class="st2" d="M949.3 628.3l-49.4-28.5 9-5.2 49.4 28.5z"/><path id="figure_x5F_text_10_" class="st2" d="M977.1 628.8l-77.9-45 9-5.2 77.9 45z"/><path id="figure_5_" class="st2" d="M1005.6 620.3l-91.8-53 108-62.3 91.8 53z"/><path id="figure_x5F_text_9_" class="st2" d="M1062.8 693.8l-49.4-28.5 9-5.2 49.4 28.5z"/><path id="figure_x5F_text_8_" class="st2" d="M1090.5 694.3l-77.9-45 9-5.2 77.9 45z"/><path id="figure_4_" class="st2" d="M1119.1 685.8l-91.8-53 108-62.3 91.8 53z"/><g id="gallery_x5F_item_11_"><path id="figure_11_" class="st2" d="M778.7 484.3l-91.8-53 108-62.3 91.8 53z"/></g><g id="gallery_x5F_item_10_"><path id="figure_10_" class="st2" d="M892.2 549.8l-91.8-53 108-62.3 91.8 53z"/></g><g id="gallery_x5F_item_9_"><path id="figure_9_" class="st2" d="M1005.6 615.3l-91.8-53 108-62.3 91.8 53z"/></g><g id="gallery_x5F_item_12_"><path id="figure_12_" class="st2" d="M1267.7 169.4l-26.8-15.4 31.5-18.2 26.8 15.4z"/></g><g id="gallery_x5F_item_13_"><path id="figure_13_" class="st2" d="M1504.8 168.8l-26.8-15.4 31.5-18.2 26.8 15.4z"/></g><g id="gallery_x5F_item_14_"><path id="figure_14_" class="st2" d="M1504.8 334.3l-26.8-15.5 31.5-18.2 26.8 15.5z"/></g><g id="gallery_x5F_item_15_"><path id="figure_15_" class="st2" d="M306.9 761.8l-26.8-15.4 31.5-18.2 26.8 15.4z"/></g><g id="gallery_x5F_item_16_"><path id="figure_16_" class="st2" d="M466.5 804.2l-26.8-15.5 31.5-18.1L498 786z"/></g><g id="gallery_x5F_item_17_"><path id="figure_17_" class="st2" d="M495.6 957.8l-26.8-15.4 31.5-18.2 26.8 15.5z"/></g><g id="gallery_x5F_item_8_"><path id="figure_8_" class="st2" d="M1119.1 677.8l-91.8-53 108-62.3 91.8 53z"/></g><path id="button_1_" class="st1" d="M1091.3 467.7l-49.5-28.6c-6-3.5-6-12.1 0-15.6l12.6-7.3c2.8-1.6 6.2-1.6 9 0l49.5 28.6c6 3.5 6 12.1 0 15.6l-12.6 7.3c-2.8 1.6-6.2 1.6-9 0z"/><path class="st0" d="M1091.3 464.8l-49.5-28.6c-6-3.5-6-12.1 0-15.6l12.6-7.3c2.8-1.6 6.2-1.6 9 0l49.5 28.6c6 3.5 6 12.1 0 15.6l-12.6 7.3c-2.8 1.6-6.2 1.6-9 0z" id="button_2_"/><path id="paragraph_7_" class="st1" d="M1248.7 492l-162.8-94 16.2-9.3 162.8 94z"/><path id="paragraph_6_" class="st1" d="M1309.4 496.9l-197.4-114 16.2-9.3 197.4 114z"/><path id="paragraph_9_" class="st1" d="M1248.7 490.2l-162.8-94 16.2-9.4 162.8 94z"/><path id="paragraph_8_" class="st1" d="M1309.4 495.1l-197.4-114 16.2-9.3 197.4 114z"/><path id="paragraph_5_" class="st1" d="M1386.6 511.4l-248.5-143.5 16.2-9.4L1402.8 502z"/><path id="paragraph_4_" class="st1" d="M1386.6 509.2l-248.5-143.5 16.2-9.4 248.5 143.5z"/><path id="h1_1_" class="st2" d="M1412.7 496.3l-248.5-143.5 33.3-19.2L1446 477.1z"/><path id="h1_2_" class="st2" d="M1412.7 483.3l-248.5-143.5 33.3-19.2L1446 464.1z"/><ellipse id="avatar_1_" transform="matrix(.9994 -.03325 .03325 .9994 -9.795 34.791)" class="st1" cx="1041.1" cy="311.9" rx="72.5" ry="41.8"/><ellipse id="avatar_2_" transform="matrix(.9994 -.03325 .03325 .9994 -9.43 34.785)" class="st2" cx="1041.1" cy="300.9" rx="72.5" ry="41.8"/><path id="logo_1_" class="st2" d="M1189.1 252.4l-91.8-53 19.8-11.4 91.8 53z"/><path id="logo_2_" class="st1" d="M1189.1 243.4l-91.8-53 19.8-11.4 91.8 53z"/><g id="menu_1_"><path id="menu_x5F_item_9_" class="st1" d="M1480.9 409.9l-29.4-17 9.9-5.7 29.4 17z"/><path id="menu_x5F_item_8_" class="st1" d="M1447.1 390.4l-26.8-15.5 9.9-5.7 26.8 15.5z"/><path id="menu_x5F_item_7_" class="st1" d="M1416.8 372.9l-47.6-27.5 9.9-5.7 47.6 27.5z"/><path id="menu_x5F_item_6_" class="st1" d="M1364.9 342.9l-39.9-23 9.9-5.7 39.9 23z"/><path id="menu_x5F_item_5_" class="st1" d="M1320.7 317.4l-47.6-27.5 9.9-5.7 47.6 27.5z"/></g><path class="st0" d="M1097 190l92 53 20-11v9l-20 11-92-53z"/><path class="st1" d="M1164.2 339.8l248.5 143.5 33.3-19.2v13l-33.3 19.2L1164 353z"/><path class="st2" d="M1138.1 365.7l248.5 143.5 16.2-9.4v2.2l-16.2 9.4-248.5-143.5zM1112 381.1l197.4 114 16.2-9.3v1.8l-16.2 9.3-197.4-114zM1085.9 396.2v1.8l162.8 94 16.2-9.3v-1.9l-16.2 9.4z"/><path class="st1" d="M686.9 431.3v5l91.8 53 108-62.3v-5l-108 62.3zM800.4 496.8v5l91.8 53 108-62.3v-5l-108 62.3zM913.8 562.3v5l91.8 53 108-62.3v-5l-108 62.3z"/><path class="st0" d="M1027.3 624.8l91.8 53 108-62.3v8l-108 62.3-91.8-53z"/><path class="st2" d="M584.4 452.5v-3.2l506.7 292.5 203.4-117.4v3.2L1091.1 745z"/></svg>