    <svg id="mesopa_mix" xmlns="http://www.w3.org/2000/svg" viewBox="0 0 1920 1080" enable-background="new 0 0 1920 1080">
      <style type="text/css">
        .vapor {
          opacity: 0.5;
        }

        .spoon_shadow {
          opacity:.35;
          -webkit-filter:url(#AI_GaussianBlur_4);
                  filter:url(#AI_GaussianBlur_4)
        }

        .camera-blade {
          fill:#212730;
        }

        .fill_color--one {
          fill:#2e3542;
        }

        .stroke_color--three {
          stroke: #394151;
        }

        .fill_color--three {
          fill: #394151;
        }

        .fill_color--seven {
          fill:#2e3542
        }

        .fill_color--eight {
          fill:#394151
        }

        .stroke_color--eight {
          stroke:#394151
        }

        .mesopa_bag-word,
        .mesopa_bag-with-word {
          fill:#EDF2F4;
        }

        .mesopa_bag-shadow {
          opacity:.35;
          -webkit-filter:url(#AI_GaussianBlur_4);
                  filter:url(#AI_GaussianBlur_4)
        }

        .layer_three-shadow {
          -webkit-filter:url(#AI_GaussianBlur_7);
                  filter:url(#AI_GaussianBlur_7);
          opacity:.5
        }

        .carrot_shadow {
          -webkit-filter:url(#AI_GaussianBlur_7);
                  filter:url(#AI_GaussianBlur_7);
          opacity:.5
        }

        .tomato_shadow {
          -webkit-filter:url(#AI_GaussianBlur_7);
                  filter:url(#AI_GaussianBlur_7);
          opacity:.5;
        }

        .bowl_shadow{
          -webkit-filter:url(#AI_GaussianBlur_4);
                  filter:url(#AI_GaussianBlur_4);
          opacity:.35;
        }

        .layer_two-shadow {
          -webkit-filter: url(#AI_GaussianBlur_7);
                  filter: url(#AI_GaussianBlur_7);
          opacity: 0.5;
        }

        .layer_one-shadow {
          -webkit-filter: url(#AI_GaussianBlur_7);
                  filter: url(#AI_GaussianBlur_7);
          opacity: 0.5;
        }


        @-webkit-keyframes cameraBlade {
          100% {
            -webkit-transform: rotate(-360deg);
                    transform: rotate(-360deg);
          }
        }


        @keyframes cameraBlade {
          100% {
            -webkit-transform: rotate(-360deg);
                    transform: rotate(-360deg);
          }
        }

        .camera-blade {
          -webkit-animation: cameraBlade 45s infinite linear;
                  animation: cameraBlade 45s infinite linear;
          -webkit-transform-origin: 961px 570px;
                  transform-origin: 961px 570px;
        }


        @-webkit-keyframes tomatoGroup {
          50% {
            -webkit-transform: translateY(10px) rotate(0.01deg);
                    transform: translateY(10px) rotate(0.01deg);
          }
        }


        @keyframes tomatoGroup {
          50% {
            -webkit-transform: translateY(10px) rotate(0.01deg);
                    transform: translateY(10px) rotate(0.01deg);
          }
        }

        .tomato_group {
          -webkit-animation: tomatoGroup 5s infinite ease-in-out;
                  animation: tomatoGroup 5s infinite ease-in-out;
        }

        @-webkit-keyframes carrotGroup {
          50% {
            -webkit-transform: translateY(15px) rotate(5deg);
                    transform: translateY(15px) rotate(5deg);
          }
        }

        @keyframes carrotGroup {
          50% {
            -webkit-transform: translateY(15px) rotate(5deg);
                    transform: translateY(15px) rotate(5deg);
          }
        }

        .carrot_group {
          -webkit-animation: carrotGroup 3s infinite ease-in-out;
                  animation: carrotGroup 3s infinite ease-in-out;
          -webkit-transform-origin: 776px 944px;
                  transform-origin: 776px 944px;
        }

        @-webkit-keyframes layerTwoGroup {
          100% {
            -webkit-transform: rotate(-360deg);
                    transform: rotate(-360deg);
          }
        }

        @keyframes layerTwoGroup {
          100% {
            -webkit-transform: rotate(-360deg);
                    transform: rotate(-360deg);
          }
        }

        .layer_two-group {
          -webkit-animation: layerTwoGroup 90s infinite linear;
                  animation: layerTwoGroup 90s infinite linear;
          -webkit-transform-origin: 961px 540px;
                  transform-origin: 961px 540px;
        }

        @-webkit-keyframes spoonGroup {
          50% {
            -webkit-transform: translateX(10px) rotate(5deg);
                    transform: translateX(10px) rotate(5deg);
          }
          100% {
            -webkit-transform: translateX(0px) rotate(0deg);
                    transform: translateX(0px) rotate(0deg);
          }
        }

        @keyframes spoonGroup {
          50% {
            -webkit-transform: translateX(10px) rotate(5deg);
                    transform: translateX(10px) rotate(5deg);
          }
          100% {
            -webkit-transform: translateX(0px) rotate(0deg);
                    transform: translateX(0px) rotate(0deg);
          }
        }

        .spoon_group {
          -webkit-animation: spoonGroup 3s infinite ease-in-out;
                  animation: spoonGroup 3s infinite ease-in-out;
          -webkit-transform-origin: 810px 580px;
                  transform-origin: 810px 580px;
        }

        @-webkit-keyframes mesopaBagGroup {
          50% {
            -webkit-transform: translateX(10px) rotate(5deg);
                    transform: translateX(10px) rotate(5deg);
          }
          100% {
            -webkit-transform: translateX(0px) rotate(0deg);
                    transform: translateX(0px) rotate(0deg);
          }
        }

        @keyframes mesopaBagGroup {
          50% {
            -webkit-transform: translateX(10px) rotate(5deg);
                    transform: translateX(10px) rotate(5deg);
          }
          100% {
            -webkit-transform: translateX(0px) rotate(0deg);
                    transform: translateX(0px) rotate(0deg);
          }
        }

        .mesopa_bag-group {
          -webkit-animation: mesopaBagGroup 3s infinite ease-in-out;
                  animation: mesopaBagGroup 3s infinite ease-in-out;
          -webkit-transform-origin: 1286px 474px;
                  transform-origin: 1286px 474px;
        }

        @-webkit-keyframes foodGroup {
          50% {
            -webkit-transform: translateX(10px) rotate(5deg);
                    transform: translateX(10px) rotate(5deg);
          }
          100% {
            -webkit-transform: translateX(0px) rotate(0deg);
                    transform: translateX(0px) rotate(0deg);
          }
        }

        @keyframes foodGroup {
          50% {
            -webkit-transform: translateX(10px) rotate(5deg);
                    transform: translateX(10px) rotate(5deg);
          }
          100% {
            -webkit-transform: translateX(0px) rotate(0deg);
                    transform: translateX(0px) rotate(0deg);
          }
        }

        .food_group {
          -webkit-animation: foodGroup 3s infinite ease-in-out;
                  animation: foodGroup 3s infinite ease-in-out;
          -webkit-transform-origin: 1094px 596px;
                  transform-origin: 1094px 596px;
        }
      </style>

      <filter id="AI_GaussianBlur_7">
        <feGaussianBlur stdDeviation="7"/>
      </filter>
      <filter id="AI_GaussianBlur_4">
        <feGaussianBlur stdDeviation="4"/>
      </filter>

      <path fill="#2e3542" d="M1920 1080H0V0h1921z"/>

      <path class="camera-blade" d="M1099.2 224.4c-42.5-16.9-88.8-26.4-137.3-26.4-65.8 0-127.6 17.2-181.2 47.3v177l318.5-197.9zm232.7 318.1c-9.7-136.7-93.3-253-211.3-308.9L970.5 336l361.4 206.5zm1 26.5c0-3-.2-6-.2-9l-172.3-94.5v416.9c103.6-65.8 172.5-181.5 172.5-313.4zM798 896.9v5c49.4 24.4 105.1 38.2 163.9 38.2 65.8 0 127.6-17.2 181.2-47.3v-203L798 896.9zM591.1 577.8c3.1 132.6 75.7 248 182.8 311.1L936 793.3 591.1 577.8zm172.4-322.2c-101.9 64.7-170.1 177.6-172.4 306.6l172.4 101.7V255.6z"/>

      <g class="bowl_group">
        <path class="bowl_container stroke_color--three" d="M1140.6 878.7c91.4-20.8 148.7-111.9 127.8-203.3l-331.1 75.5c20.8 91.4 111.8 148.6 203.3 127.8z" fill="none" stroke-width="20" stroke-miterlimit="10"/>
        <path class="bowl_content fill_color--three" d="M1253.9 765.8c-5.2-23-28.1-37.4-51.1-32.1-17.3 3.9-29.8 17.9-32.6 34.4-9.4 4.9-16.6 13-20.3 22.7-2.5.1-5.1.4-7.7 1-23 5.2-37.4 28.1-32.1 51.1 5.2 23 28.1 37.4 51.1 32.1 14.4-3.3 25.4-13.5 30.4-26.3 2.5-.1 5.1-.4 7.7-1 17.3-3.9 29.8-17.9 32.6-34.4 16.9-8.8 26.5-28.1 22-47.5z"/>
      </g>

      <path class="bowl_shadow" transform="rotate(-33.716 1180.11385335 851.00297268)" d="M1107 838h146v26h-146z"/>

      <path class="vapor stroke_color--three" d="M1009.8 425.9c0 27.7-25.8 27.7-25.8 55.4s25.8 27.7 25.8 55.4-25.8 27.7-25.8 55.4 25.8 27.7 25.8 55.4m36.9-221.6c0 27.7-25.8 27.7-25.8 55.4s25.8 27.7 25.8 55.4-25.8 27.7-25.8 55.4 25.8 27.7 25.8 55.4" fill="none" stroke-width="15" stroke-linecap="round" stroke-miterlimit="10" />

      <g class="spoon_group">
        <path class="fill_color--three" d="M639.8 454.5c-3.3 9 12.1 23 19.9 28.7 8.7 6.3 18.6 11.1 28.5 15.7 18.5 8.6 37 17.1 55 26.6 33.7 17.7 69 42 93.6 64.3s24.1 41.1 44 67.5 47 34.7 69.1 34.8c22.1.1 41.3-20 20.9-63.7s-54.2-54.3-83.6-51.8c-29.4 2.5-45.8-5.3-82.8-27.5-22.3-13.4-43.9-28.2-64.7-43.9-20.4-15.4-38.4-34.8-59.8-48.5-17.4-11.2-36.8-11.2-40.1-2.2z"/>
        <ellipse class="fill_color--seven" transform="rotate(-43.788 923.07280904 633.9360523)" cx="923.1" cy="633.9" rx="36.9" ry="55.5"/>
      </g>

      <g class="food_group">
        <circle class="fill_color--eight" cx="1063" cy="581" r="14"/>
        <circle class="stroke_color--eight" cx="1117.5" cy="566.5" r="21.5" fill="none" stroke-width="10" stroke-miterlimit="10"/>
        <circle class="fill_color--eight" cx="1081.5" cy="628.5" r="18.5"/>
      </g>

      <g class="mesopa_bag-group">
        <path class="mesopa_bag-word" d="M1214.5 450.5c-.3.7-.3 1.3.1 1.9 1.1 1.4 3.7 2.1 7.8 1.9 4.1-.1 10.8-1 20.1-2.5.1-.9-.2-1.9-.9-2.8-.7-.9-2.4-1.7-5.2-2.3-4.4-1-8.9-1.1-13.7-.3-3.1.5-5.3 1.3-6.7 2.4-.6.4-1.1 1-1.5 1.7zm31.4 15.8c.3-.2.6-.4 1-.6-1.5.1-3.6.4-6.1 1-2.8.6-5.3 1.6-7.2 3.2-2 1.5-2.4 3-1.2 4.5.8 1.1 2.6 1.8 5.2 2.2 2.6.4 5.6.2 9.1-.6 4-.8 7-2 8.8-3.4 1.9-1.4 2.2-2.9 1.2-4.3-.8-1-2.2-1.7-4.3-2.1-.4 1.4-1.2 2.5-2.2 3.3-1.8 1.3-3.2 1.2-4.3-.1-.4-.5-.6-1.1-.5-1.7-.1-.7.1-1.2.5-1.4zm-32.3 2.9c-1.5-.3-2.8-.1-3.7.6-.3.3-.4.5-.2.8.4.5 1.5.8 3.5.8 1.2 0 2.4-.1 3.6-.3-.2-.3-.7-.6-1.3-1-.6-.5-1.3-.8-1.9-.9z"/>
        <path class="mesopa_bag-with-word" d="M1106.9 458.2l31 67.3s27.3 59.4 35.7 77.6c8.4 18.3 25.1 6.4 25.1 6.4l-1.1-2.3 3.4-1.6 2.2 1.8 235.8-125-7-9.2s-2.9-33.3-20.7-72.1c-17.9-38.8-38.6-56.9-38.6-56.9l-4.5-15.9s-211.8 89.8-246.8 103.9c-24.6 9.9-14.5 26-14.5 26zm122.9 27.2c-4.1.9-6.5 1.3-7.3 1.2-.4 0-.7-.3-1-.6-.1-.1-.2-.3-.3-.6-.2-.3-.3-.5-.5-.7.8.4 3.3.2 7.3-.6-1.6 0-2.7-.1-3.3-.2-.6-.1-1-.2-1.3-.3-.3-.1-.5-.1-.7-.1-.2 0-.4-.1-.7-.1-.3-.1-.5-.1-.7-.1-.2 0-.4-.1-.6-.2-.3-.1-.5-.1-.6-.2-.1-.1-.3-.1-.5-.2l-.4-.2-.3-.3c-.1-.1-.2-.2-.2-.3-.1-.5 0-.8.2-1 .3-.2 1.2-.4 2.7-.7 1.5-.2 2.5-.4 3-.5-1.5 0-2.9-.1-4-.4-1.1-.2-2.3-.6-3.6-1.1-1.2-.5-2-1-2.4-1.5-.1-.1-.1-.2-.1-.3 5.4-.8 8.6-1.6 9.7-2.4.5-.4.6-.7.3-1.1-.3-.4-1-.7-2-.7-1.3 0-2.7.1-4.2.4-.3.1-.5.2-.8.3-1.2.3-2.4.4-3.6.4-1.2-.1-2.4-.4-3.3-.9-.5-.3-.9-.6-1.1-.9-.3-.4-.4-.8-.5-1.3 0-.5.2-.8.5-1.1 1-.8 2.5-.9 4.4-.4.6.2 1.3.5 2 1 .8.5 1.3.9 1.6 1.3.8-.2 1.5-.6 2.3-1.2.5-.4.8-.8.9-1.2.1-.4 0-.9-.3-1.3-1.2-1.6-3.8-1.9-7.7-.9-.4.1-.6 0-.7-.2v-.2c.1-.1.7-.2 1.8-.5s2.1-.4 2.9-.4c1.9-.1 3.3.6 4.3 1.9.5.7.8 1.5.7 2.3-.1.8-.5 1.5-1.3 2.1-.1.1-.3.2-.4.3.2 0 .4 0 .6-.1.9-.1 1.5-.1 2-.1s1 .1 1.6.3c.6.2 1 .5 1.4 1 .4.5.5 1.1.2 1.8-.1.3-.4.6-.7.9-.4.3-.9.6-1.6.8-.7.3-2 .5-3.8.7-.5.1-.8.1-1 .3-.2.1-.2.4.1.6s1 .5 2.2.7c1.3.2 2.8.3 4.6.2 1.8-.1 3.1-.3 4-.7.2.3.3.6.1.9-.1.3-.3.6-.5.7-.7.5-2.4 1.1-5.1 1.7-.9.2-1.5.4-1.7.5-.2.2-.3.3-.3.4l.3.3c.4.2 1.1.4 2.2.5 2 .4 4.6.2 7.8-.3.3-.1.5 0 .6.1.1.1.4.3.7.7.3.4.5.6.7.7-.8.3-2.4.6-4.6 1.1zm27.6-.1c5.6-.6 11.5.4 17.7 2.8 7.2 2.8 13.6 7.9 19.3 15.2 5.5 7.1 8 14.1 7.6 21.1-.3 5.4-2.5 9.7-6.9 13.1-2.8 2.1-6.6 3.5-11.4 4-4.9.6-9.1-.1-12.8-1.9-.7-.4-1.1-.8-1.3-1.2-.2-.4.4-.4 1.7-.1 2.7.7 5.3.9 7.8.7 5.3-.5 10.1-2.3 14.2-5.6 2.8-2.1 4.6-4.8 5.4-7.9 1.6-5.6 0-12-4.8-19.2-.5-.8-1.4-2-2.5-3.5-1.2-1.5-3-3.4-5.6-5.6-2.6-2.2-5.4-4-8.5-5.5-6.8-3.1-13-3.7-18.5-1.9-1.7.5-3.1 1.2-4.3 2.2-2.8 2.1-4.2 5.2-4.4 9.3 0 2.1.7 6 2.1 11.4 1.4 5.5 2.2 9.3 2.4 11.4.3 4.7-1 8.2-3.9 10.5-2.5 1.9-6 2.4-10.6 1.5-6.5-1.4-12.6-5.7-18.2-13.1-2.7-3.4-4.3-6.6-4.9-9.6-.6-3-.1-5.5 1.6-7.6.3-.4.7-.7 1.1-1.1 1.6-1.2 3.6-1.6 5.9-1.1 1.6.4 3.3 1.2 5.1 2.6.8.6 1 1 .7 1.4-.5.5-1.2.2-2.1-.8-1.7-1.8-3.6-2.2-5.7-1.3-.5.2-1 .5-1.4.8-1.4 1.1-2.3 2.8-2.5 5-.3 3.2.8 6.5 3.3 9.8 2.2 2.9 5.3 5.6 9.2 8.1 2.1 1.3 4.2 2.2 6.3 2.7 3.4.7 6 .3 7.7-1 2.4-1.8 3.4-5 2.9-9.5-.2-1.7-.8-4.8-1.9-9.4-1.1-4.6-1.7-8.1-2-10.4-.4-3.5-.1-6.4.9-8.6 1-2.2 2.1-3.8 3.6-4.9 2-1.5 4.5-2.5 7.7-2.8zm-36.1-43.1c2.9-.7 5.9-1 9.2-.9 3.3.1 6.2 1.1 8.7 2.8.9.7 1.8 1.6 2.7 2.8.9 1.2 1.5 2.7 1.8 4.6l18.9-5.3c1.8-.4 3.1-.5 3.9-.3.8.2 1.4.6 1.8 1 .4.5.6.8.7.9.1.1.3.5.7 1.2.4.7.7 1.2 1 1.5-1.5-.2-7.3.6-17.4 2.6-10 2-16.5 3.7-19.4 5.1h.3c.6-.2 1.1-.3 1.4-.3.3-.1.9-.2 1.8-.4s1.6-.3 2.1-.4c.5-.1 1.3-.1 2.2-.2.9-.1 1.7-.1 2.3-.1.6 0 1.3.1 2.1.2s1.5.3 2 .5c1.4.5 2.4 1.3 3.1 2.2 1.3 1.7 1.8 3.4 1.4 5.1 2.8.8 4.8 2 6.1 3.6 2.3 3 1.6 5.9-2.2 8.8-1.7 1.3-3.9 2.3-6.5 2.9-3.8 1-7.5 1.1-11.2.4-3.7-.7-6.3-2-7.8-4-2.3-3-1.6-5.9 2.2-8.8 1.7-1.3 3.9-2.3 6.5-2.9 3.5-.9 7.2-1 11.1-.4.6-1.3.4-2.7-.7-4-.8-1.1-2.2-1.7-4-1.8-2.2-.2-4-.3-5.3-.1-1.4.2-2.4.4-3 .5-.6.1-1.5.3-2.6.5-1.1.3-1.8.4-2.1.5-.2 0-.3 0-.4-.1-.3.1-.6.2-1 .2-2.3.6-4.2 1.5-5.7 2.6s-2.1 2.1-1.9 2.8c-2.3-2.1-3.6-3.4-3.9-3.8-.3-.4-.3-.8-.1-1.2.2-.4.6-.7 1-1 2.5-1.9 5.7-3.5 9.6-4.7l-2.9.3c-3.5.4-5.8.5-7 .3-1.2-.1-2.5-.3-3.8-.5-2-.3-3.5-1-4.3-2.1-.3-.3-.4-.7-.6-1-1-2.4-.2-4.7 2.4-6.7 1.7-1.2 4-2.2 6.8-2.9zm-20.3-25.3c10.4-2.1 16.6-1.9 18.6.7.9 1.2 1.1 2.6.5 4.2-.3.8-1 1.6-2 2.4-1 .8-2.4 1.5-4.2 2.3 7.7-.8 12.5 0 14.3 2.3.5.6.8 1.4.8 2.2.1 1.9-.9 3.6-3 5.2-4 3.1-9.3 4.5-16.1 4.2-3.8-.2-7.1-1.4-10-3.7-.8-.6-1.5-1.3-2-2-1.4-1.9-2-3.9-1.7-6.2.1-.7.5-1.2 1-1.3.5-.2 1 .1 1.3.7-1.1 1.6-1.1 3.1.1 4.6 1.3 1.7 4.4 2.8 9.1 3.3 2.7.2 5.7.1 8.9-.3 3.9-.5 6.6-1.3 8.2-2.5 1.6-1.2 2-2.3 1.2-3.3-1.9-2.4-8.1-2.7-18.5-.9-2.1.4-3.6.5-4.6.4-1-.1-1.7-.6-2.4-1.4-.1-.2-.4-.6-.8-1.4-.4-.8-.8-1.3-1.1-1.5 1.3.2 3.7-.1 7.3-.7 3.6-.6 6.1-1.3 7.6-2.1 1.5-.7 2.6-1.4 3.4-2 .8-.6.9-1.2.5-1.8-.6-.8-2-1.2-4.3-1.2-3.3-.1-7.3.4-11.9 1.3-.5.1-.8.1-1-.1-.4-.2-.4-.5 0-.8.1-.4.4-.5.8-.6z"/>
      </g>

      <g class="layer_three-group">
        <path class="layer_three-shadow" d="M0 0v1080h1920l1-1080H0zm968 931c-191.6 0-347-155.4-347-347s155.4-347 347-347 347 155.4 347 347-155.4 347-347 347z"/>
        <path class="layer_three-fill fill_color--three" d="M0 0v1080h1920V32L0 0zm960 919c-191.6 0-347-155.4-347-347s155.4-347 347-347 347 155.4 347 347-155.4 347-347 347z"/>
      </g>

      <g class="tomato_group">
        <path class="tomato_shadow" d="M898.1 228.9c4.3 2 7.3 5.8 8.9 10.4.9-8.7-1.6-19.9-10.7-24.2 4-.6 8.3-.9 11.7-.5 8.4 1 11.8 4.8 11.8 4.8 5.2-1.2 3.7-5.8 3.7-5.8-6.6-5.3-17.1-4.5-25.8-2.4 3.8-4.4 5.3-10.6 4.5-16.6-2.6 4.4-5 7.6-10.7 10.2 1.3-4.4.5-15.3-5-20.1.7 6 .4 10.1-1.5 14.2-13.1-15.4-34.1-23.1-55.1-18.3-30.1 6.9-49 36.9-42.1 67.1s36.9 49 67.1 42.1c28.1-6.5 46.4-33 43.2-60.9z"/>
        <path class="tomato fill_color--seven" d="M890.1 223.9c4.3 2 7.3 5.8 8.9 10.4.9-8.7-1.6-19.9-10.7-24.2 4-.6 8.3-.9 11.7-.5 8.4 1 11.8 4.8 11.8 4.8 5.2-1.2 3.7-5.8 3.7-5.8-6.6-5.3-17.1-4.5-25.8-2.4 3.8-4.4 5.3-10.6 4.5-16.6-2.6 4.4-5 7.6-10.7 10.2 1.3-4.4.5-15.3-5-20.1.7 6 .4 10.1-1.5 14.2-13.1-15.4-34.1-23.1-55.1-18.3-30.1 6.9-49 36.9-42.1 67.1s36.9 49 67.1 42.1c28.1-6.5 46.4-33 43.2-60.9z"/>
      </g>

      <g class="carrot_group">
        <path class="carrot_shadow" d="M649.7 1025.2c38.3-10.3 104.8-28.5 153.2-43.9-2.7-7-6-13.7-9.8-20.2-1.5-2.5-.6-5 2.2-5.7 2.7-.7 6.2.7 7.7 3.2 3.8 6.3 7 12.8 9.6 19.6 19.7-6.4 35.5-12.2 43.6-16.4-3.1-8-6.9-15.7-11.6-22.9-1.5-2.4-.7-5 2-5.7 2.7-.8 6.2.5 7.8 3 4.1 6.5 7.6 13.3 10.5 20.3 16.7-12 21.1-26.4 15.3-43.7l30.2 3.2c2.7.3 5.1-1.7 5.4-4.4.3-2.7-1.7-5.1-4.4-5.4l-27.2-2.9 23.8-13.4c2.4-1.3 3.2-4.3 1.9-6.7-1.3-2.4-4.3-3.2-6.7-1.9l-23.6 13.3 9-24.3c.9-2.5-.4-5.4-2.9-6.3-2.5-.9-5.4.4-6.3 2.9l-9.6 25.8c-11.9-17.1-25.1-19.3-50.3-8.8-3.5 1.5-8.3 4.1-14.1 7.7 5 8.1 9.2 16.8 12.3 25.9 1 2.7-.2 6.3-2.5 7.9-2.3 1.6-4.8.7-5.7-2-3.2-9.3-7.5-18.1-12.6-26.4-14.5 9.6-33 23-52.6 37.8 3.8 6.8 7.1 14 9.7 21.4 1 2.7-.2 6.3-2.5 7.9-2.3 1.6-4.8.7-5.7-2-2.6-7.4-5.8-14.5-9.6-21.2-33.7 25.6-69.4 54-92.3 72.4-5.8 4.7-1.2 13.7 5.8 11.9z"/>
        <path class="carrot fill_color--seven" d="M644.7 1020.2c38.3-10.3 104.8-28.5 153.2-43.9-2.7-7-6-13.7-9.8-20.2-1.5-2.5-.6-5 2.2-5.7 2.7-.7 6.2.7 7.7 3.2 3.8 6.3 7 12.8 9.6 19.6 19.7-6.4 35.5-12.2 43.6-16.4-3.1-8-6.9-15.7-11.6-22.9-1.5-2.4-.7-5 2-5.7 2.7-.8 6.2.5 7.8 3 4.1 6.5 7.6 13.3 10.5 20.3 16.7-12 21.1-26.4 15.3-43.7l30.2 3.2c2.7.3 5.1-1.7 5.4-4.4.3-2.7-1.7-5.1-4.4-5.4l-27.2-2.9 23.8-13.4c2.4-1.3 3.2-4.3 1.9-6.7-1.3-2.4-4.3-3.2-6.7-1.9l-23.6 13.3 9-24.3c.9-2.5-.4-5.4-2.9-6.3-2.5-.9-5.4.4-6.3 2.9l-9.6 25.8c-11.9-17.1-25.1-19.3-50.3-8.8-3.5 1.5-8.3 4.1-14.1 7.7 5 8.1 9.2 16.8 12.3 25.9 1 2.7-.2 6.3-2.5 7.9-2.3 1.6-4.8.7-5.7-2-3.2-9.3-7.5-18.1-12.6-26.4-14.5 9.6-33 23-52.6 37.8 3.8 6.8 7.1 14 9.7 21.4 1 2.7-.2 6.3-2.5 7.9-2.3 1.6-4.8.7-5.7-2-2.6-7.4-5.8-14.5-9.6-21.2-33.7 25.6-69.4 54-92.3 72.4-5.8 4.7-1.2 13.7 5.8 11.9z"/>
      </g>

      <g class="layer_two-group">
        <g class="layer_two-shadow">
          <path class="layer_two-element-dot" d="M761 641c-7.2 0-13 5.8-13 13 0 2.7.8 5.2 2.2 7.3 2.3 3.5 6.3 5.7 10.8 5.7 1.9 0 3.8-.4 5.4-1.2 4.5-2.1 7.6-6.6 7.6-11.8 0-7.2-5.8-13-13-13z"/>
          <path class="layer_two-element-large" d="M0 0v1080h1920l1-1080H0zm620 661.2c0-6 4.8-10.8 10.8-10.8s10.8 4.8 10.8 10.8c0 6-4.8 10.8-10.8 10.8s-10.8-4.8-10.8-10.8zm68.5 68.8c0 17.9-14.6 32.5-32.5 32.5s-32.5-14.6-32.5-32.5v-47h15v47c0 9.6 7.9 17.5 17.5 17.5s17.5-7.9 17.5-17.5v-47h15v47zm-34.9-70.7l-3.1-3.1c-1.1-1.1-1.1-2.8 0-3.8 1.1-1.1 2.8-1.1 3.8 0l3.1 3.1c1.1 1.1 2.8 1.1 3.8 0l3.1-3.1c1.1-1.1 2.8-1.1 3.8 0 1.1 1.1 1.1 2.8 0 3.8l-3.1 3.1c-1.1 1.1-1.1 2.8 0 3.8l3.1 3.1c1.1 1.1 1.1 2.8 0 3.8-1.1 1.1-2.8 1.1-3.8 0l-3.1-3.1c-1.1-1.1-2.8-1.1-3.8 0l-3.1 3.1c-1.1 1.1-2.8 1.1-3.8 0-1.1-1.1-1.1-2.8 0-3.8l3.1-3.1c1.1-1 1.1-2.8 0-3.8zm65.3 101.3h-14.6v-78.1h14.6v78.1zM1198.3 917c-6.3-28.6 25.1-61.9 41.7-80 21-23 21-50 2-56-18.1-5.7-39.1 9.5-49 60-8.6 43.7-58.8 95.2-91.8 125.1-39.5 13.7-81.7 21.4-125.3 21.9-63.9.8-124.5-13.3-178.6-38.9-22.6-10.7-31.6-38.4-19.1-60.1 14.5-25 22.8-54 22.8-85 0-27.1-6.5-52.9-18-75.7-6.7-13.3-25-31.3-27-55.3-1.1-13.3-16.7-.3-27.7-8-28-19.7-62.1-31.3-98.6-31-5.8 0-11.4.4-17 1-24.8 2.7-46.8-16.1-47.5-41-.1-4.4-.2-8.8-.2-13.2.3-105.1 40.9-200.9 107-272.9 9.4 6.8 9.5 26 2 65.1-10 52 27.9 80 61 80s77-35 56-96c-29.8-86.4 18.7-136.9 60.5-163 39.4-12.2 81.3-18.5 124.7-18 221 2.8 399.4 182.1 400.8 403.3.9 138.8-70.6 263.5-178.7 337.7z"/>
        </g>
        <g class="layer_two fill_color--seven">
          <path class="layer_two-element-dot" d="M752 628c-7.2 0-13 5.8-13 13 0 2.7.8 5.2 2.2 7.3 2.3 3.5 6.3 5.7 10.8 5.7 1.9 0 3.8-.4 5.4-1.2 4.5-2.1 7.6-6.6 7.6-11.8 0-7.2-5.8-13-13-13z"/>
          <path class="layer_two-element-large" d="M0 0v1080h1920l1-1080H0zm611 648.2c0-6 4.8-10.8 10.8-10.8s10.8 4.8 10.8 10.8c0 6-4.8 10.8-10.8 10.8s-10.8-4.8-10.8-10.8zm68.5 68.8c0 17.9-14.6 32.5-32.5 32.5s-32.5-14.6-32.5-32.5v-47h15v47c0 9.6 7.9 17.5 17.5 17.5s17.5-7.9 17.5-17.5v-47h15v47zm-34.9-70.7l-3.1-3.1c-1.1-1.1-1.1-2.8 0-3.8 1.1-1.1 2.8-1.1 3.8 0l3.1 3.1c1.1 1.1 2.8 1.1 3.8 0l3.1-3.1c1.1-1.1 2.8-1.1 3.8 0 1.1 1.1 1.1 2.8 0 3.8l-3.1 3.1c-1.1 1.1-1.1 2.8 0 3.8l3.1 3.1c1.1 1.1 1.1 2.8 0 3.8-1.1 1.1-2.8 1.1-3.8 0l-3.1-3.1c-1.1-1.1-2.8-1.1-3.8 0l-3.1 3.1c-1.1 1.1-2.8 1.1-3.8 0-1.1-1.1-1.1-2.8 0-3.8l3.1-3.1c1.1-1 1.1-2.8 0-3.8zm65.3 101.3h-14.6v-78.1h14.6v78.1zM1189.3 904c-24.3 15 13.7-50 41.7-80 21.3-22.8 21-50 2-56-18.1-5.7-39.1 9.5-49 60-8.6 43.7-61 112-91.8 125.1-39.5 13.7-81.7 21.4-125.3 21.9-63.9.8-124.5-13.3-178.6-38.9-22.6-10.7-31.6-38.4-19.1-60.1 14.5-25 22.8-54 22.8-85 0-27.1-6.5-52.9-18-75.7-6.7-13.3-25-31.3-27-55.3-1.1-13.3-16.7-.3-27.7-8-28-19.7-62.1-31.3-98.6-31-5.8 0-11.4.4-17 1-24.8 2.7-46.8-16.1-47.5-41-.1-4.4-.2-8.8-.2-13.2.3-105.1 40.9-200.9 107-272.9 10-11.9 16 .1 2 65.1-11.1 51.8 27.9 80 61 80s77-35 56-96c-29.8-86.4 32.9-148.9 60.5-163s81.3-18.5 124.7-18c221 2.8 399.4 182.1 400.8 403.3.9 138.8-70.6 263.5-178.7 337.7z"/>
        </g>
      </g>

      <g class="layer_one-group">
        <path class="layer_one-shadow" d="M0 0v1080h1920l1-1080H0zm968.5 1045c-256-.3-461.4-208.4-458.5-464.4.6-49.5 9-97 24-141.6 6.4-18.9 1.8-39.5-11.3-54.5-14.5-16.5-23.1-38.3-22.7-62 .8-48.9 40.3-89.1 89.2-90.5 12.7-.4 24.9 1.8 36 6.1 18.4 7.1 39.4 3.7 54.8-8.7 78.9-64 179.5-102.4 289-102.4 253.5 0 459 205.5 459 459 0 253.7-205.8 459.3-459.5 459z"/>
        <path class="layer_one-foreground fill_color--one" d="M0 0v1080h1920l1-1080H0zm959.5 1031c-256-.3-461.4-208.4-458.5-464.4.6-49.5 9-97 24-141.6 6.4-18.9 1.8-39.5-11.3-54.5-14.5-16.5-23.1-38.3-22.7-62 .8-48.9 40.3-89.1 89.2-90.5 12.7-.4 24.9 1.8 36 6.1 18.4 7.1 39.4 3.7 54.8-8.7 78.9-64 179.5-102.4 289-102.4 253.5 0 459 205.5 459 459 0 253.7-205.8 459.3-459.5 459z"/>
      </g>

    </svg>