<svg id="Layer_1" xmlns="http://www.w3.org/2000/svg" viewBox="0 0 640 360"><style>.st0{fill:#FFFFFF;}</style><path class="st0" d="M174.9 183.3c-3.6-20.8-8.8-45.8-1.3-66.5 1.8-5 9.8-24.3 17.7-13.2 4.4 6.3-7.3 17.8-9.1 23.5-4.6 14.5-3.2 38.6 4.1 51.9 12.6 23.1 26.5 5.6 46.1 2.8 18.4-2.7 38.5-4.3 48.7 14.6 9.8 18.2-1.2 34.9-16 46.2-13.7 10.5-30.8 17.7-34.7-4-1.7-9.6 4.9-13.8 4.5-22-.5-9.7-4-13-6.6-22.8-8 5.7-17.9 12-21.3 22-3.4 10.2.2 8.5 2.2 17.9 1.6 7.8 8.5 7-3.4 14.9-5.9 3.9-19.2 5.6-25.9 4.3-15.2-2.8-11-9-25.4-4.7-8.6 2.5-15.8 9.8-24.8 12.4-21.9 6.4-32.5-2.6-44.3-20.5-2.5 5.4-4 37.2-15.6 35-10.7-2-11.4-45.1-11.7-52.3-1.5-35.1 5.5-84.9 22.7-116 10.2-18.5 41.9-59.1 67-42.1 32.6 22-11.1 74.3-25.9 93.2 30.6 26 12.5 65.3-23.9 76.4 5.9 36 42.1 6.5 59 2.1-8.4-25.4-12.6-43.4 17.9-53.1zm-77.7-17c18-14.7 64.8-59.7 47.8-87.6-19.1-31.4-55.5 30-60.7 43.5-2.9 7.6-18.1 46.8-12.7 52.4 14.7 15.4 15.4-27.9 16-32.8.8-6.4.8-44 15.3-29.5 9.4 9.5-10.2 41.6-5.7 54zm95.8 73.3c-2.8-12.1 3.3-48.3-21-40.5-22.3 7.2-1 52.1 21 40.5zm56.1-43.7c.9 15.6-7.1 30.1-6.6 45.7 9.4-2.9 26.5-12.7 29.9-23.2 4.6-14-8.7-29.4-23.3-22.5zm-121.6-11.7c-7.6-24.5-29.2 10.4-30 23.1-2 32.3 28.7-8.1 30-23.1zm-57.9 7c-2.4 16.7-2.4 31.9 2.6 47 1.7-9.8 7.2-20.8 7.1-30.7 0-13.1 4.1-13-9.7-16.3z"/><path class="st0" d="M326.8 187.7c21.7-20.5 36.9-20.5 47.7 8.8 10.8-6.7 23.3-17.3 36.3-9.7 4.8 1 6 4.2 3.8 9.5 2 .5 4 1.1 6 1.6.1.3 5.2 12.6 4.5 11.6v6.9c2.5 1.7 5.2 2.7 8.1 3.2 2.2 4.4 6.1 7.8 3.8 14.8-.7 2.3-11.8 14.9-15.6 13.8-4.4-1.3-4.4-11.3-7.7-14.4-10.9 7.8-31.5 27.1-36.9 3.6-1.7-7.5 18.9-33 15.8-36.6-5.3 3.8-13.9 8.6-17.7 14.1-5.3 7.7-3.5 15.5-7.2 23.3-13.1 28.1-31.8 21.1-46.3 1.5-7.4 6.5-29.8 29.7-34.8 9.2-4.6-18.6 20.2-18.6 28.2-27.6 22.9-25.9-33.5-61.2-17-94 5.9-11.8 25.5-30.5 39.4-22.4 10 5.8 8.3 16 1.6 18.2 2.1-.7-10.5-5.2-14.3-4.3-6.8 1.5-13.7 8.6-16.6 14.9-8.5 18.7 9.2 39.3 18.9 54zm8.3 25.5c7.5.3 33.1-15.9 22.9-25.1-10.9-9.9-26.1 14.5-22.9 25.1zm17.9 4.7c-7.5 4.1-31.4 17.6-11 26.2 14.8 6.1 14.3-17.6 11-26.2zm56.6-12.2c-7.3 8.6-16.4 15.9-18.3 27.9 13-4.7 17.6-15 18.3-27.9zm106.4-3.1c3.3-8.4 5.4-27.4 16.6-22.1 10.2 4.9-1.9 24.3-4 31.5-1.5 4.8-2.8 23.3-7.9 25-12.1 4.1-5.8-22.8-5.3-27.2-9.4 13.9-34.7 50.5-55.8 35-.3 8 3.5 49.3-12.1 33.7-8.8-8.8-5.9-58.5-3-71.3 0-3.9.2-7.8.4-11.6 2.1-3.1 5.1-3.3 8.9-.6 4.2 5.2 7.8 4.3 10.8-2.8 4.1-4.2 9-7.4 14.6-9.5 20.7-9.1 31.9-.2 36.8 19.9zm-38.2 30.3c11.8-4.6 37.7-32.3 17.3-41.3-18.1-8-33.7 24-32.6 37.3 6.3-4.1 10.3 1.2 15.3 4zm74.6-53.3c22.5-3.6 30.9-1.8 41.6 21.6 9.5 20.7 5.1 40.3-18.1 49.2-21.1 8-34.5-5.3-37.8-26.6-1.2-7.9-1.2-19.6 3-27 3.8-7 11.1-8.4 11.3-17.2zm12.7 62.6c32.9-.9 20.9-55.9-3.1-51.3-19.6 3.7-17.1 51.4 3.1 51.3zm-30-102.2c7-5.1 19.9 7.4 17.8 14.1-4.9 16.3-18.2-5.2-17.8-14.1z"/></svg>